<svg xmlns="http://www.w3.org/2000/svg" viewBox="0 0 116.01 136.84"><path d="M115.24,30.88c0-.18.13-.39.08-.55A10.6,10.6,0,0,0,107.93,23a9,9,0,0,0-6.5.68,9.78,9.78,0,0,0-14.1-12,3.16,3.16,0,0,0-.16-.32C84.29,7.22,80.43,5.39,75.45,6a.88.88,0,0,1-.69-.36A11.71,11.71,0,0,0,53.28,9.13a13.79,13.79,0,0,0,0,2.32v2.38C48.85,8.3,42.34,7.42,37.42,9.92A12.07,12.07,0,0,0,31,18a12.83,12.83,0,0,0,1.76,10.24,1.39,1.39,0,0,1-.38,0A10,10,0,0,0,19.87,38.55a32.35,32.35,0,0,0,.76,3.67q1,6.3,1.84,12.62c.48,3.44.89,6.88,1.37,10.31q1.28,9.33,2.59,18.65c.16,1.2.34,2.39.52,3.61,4.67-.7,7.51,2.38,10.69,4.94-1.3-12.17-2.59-24.21-3.88-36.3a3.74,3.74,0,0,1,.52.09q9.6,3.44,19.2,6.91a1.1,1.1,0,0,1,.56.84q0,14,0,27.9c0,11.56,0,23.12,0,34.67a1.27,1.27,0,0,0,.59.94c3.46,1.73,7,3.39,10.41,5.12a2.11,2.11,0,0,0,2.12,0Q80,126.25,92.85,120l8.09-4a1.46,1.46,0,0,0,1-1.24c.28-2.39.7-4.77,1-7.16q1.47-10.85,2.92-21.71c.89-6.75,1.75-13.5,2.65-20.25q1.44-10.92,2.94-21.81a2.54,2.54,0,0,1,.81-1.46,11.1,11.1,0,0,0,3.38-11.08C115.58,31.16,115.37,31,115.24,30.88Zm-98,66.58a7.45,7.45,0,0,0-7-1.53,7.37,7.37,0,0,0-5.24,9A1.42,1.42,0,0,1,4.82,106a16.68,16.68,0,0,1-1.48,1.29c-4.27,4-4.59,10.3-.12,14.28,3.65,3.23,7.94,3.77,12.52,2.45,1-.29,1.92-.74,2.81-1.09a19.88,19.88,0,0,0-.32,2.93,7.47,7.47,0,0,0,9.15,6.91,1.1,1.1,0,0,1,1.3.48,9.25,9.25,0,0,0,10.14,3.15,9.15,9.15,0,0,0,6.57-8.21,3.7,3.7,0,0,1,.81-2.13A12.65,12.65,0,0,0,40,106.54c-1.31-.42-2.69-.6-4.11-.91A10.47,10.47,0,0,0,35,98.05a10.67,10.67,0,0,0-6-5.11C24.25,91.29,20.57,92.73,17.23,97.46Z" fill="none"/><path d="M17.23,97.46c3.34-4.73,7-6.17,11.78-4.52a10.67,10.67,0,0,1,6,5.11,10.47,10.47,0,0,1,.94,7.58c1.42.31,2.8.49,4.11.91a12.65,12.65,0,0,1,6.18,19.53,3.7,3.7,0,0,0-.81,2.13,9.15,9.15,0,0,1-6.57,8.21,9.25,9.25,0,0,1-10.14-3.15,1.1,1.1,0,0,0-1.3-.48,7.47,7.47,0,0,1-9.15-6.91,19.88,19.88,0,0,1,.32-2.93c-.89.35-1.83.8-2.81,1.09-4.58,1.32-8.87.78-12.52-2.45-4.47-4-4.15-10.25.12-14.28A16.68,16.68,0,0,0,4.82,106,1.42,1.42,0,0,0,5,104.9a7.37,7.37,0,0,1,5.24-9A7.45,7.45,0,0,1,17.23,97.46Zm-6.34,7.38L11,105c-.36.33-.74.66-1.09,1a8.31,8.31,0,0,0-1.94,9.23c1.46,3.42,4.31,5.22,7.82,5.86,1.53.27,3.37,1,4.68-.91,0,3.41,1.05,5.63,3.41,6.9A6.61,6.61,0,0,0,32.21,126a6.71,6.71,0,0,1-2.86,3.92c2.87,2,8.08,1.11,10.23-1.67A11.38,11.38,0,0,0,35.1,110.7a11.52,11.52,0,0,0-8.13-.58,10.81,10.81,0,0,1,6.45-3.27A10.19,10.19,0,0,0,27.17,99a8.42,8.42,0,0,0-8.45.8c1.39,2.45,1.54,2.85,1.39,3.89-2.24-2.82-5-4-8.5-2.71a5.74,5.74,0,0,0-3.84,5Z" fill="#f7d157"/><path d="M55,13.22l-1.72-1.77a13.79,13.79,0,0,1,0-2.32A11.71,11.71,0,0,1,74.76,5.68a.88.88,0,0,0,.69.36c5-.65,8.84,1.18,11.72,5.24a3.16,3.16,0,0,1,.16.32,9.78,9.78,0,0,1,14.1,12,9,9,0,0,1,6.5-.68,10.6,10.6,0,0,1,7.39,7.36c.05.16,0,.37-.08.55L112,34.1c-.26-.64-.5-1.28-.77-1.9-1.68-4-4.5-6.47-8.87-7a2.72,2.72,0,0,0-2.87,1.08A9.58,9.58,0,0,1,98,27.75c1.88-4.64,1.19-8.71-2.54-12a8.85,8.85,0,0,0-7.06-2.16c1.22,4,.45,7.91-.94,9.38-.26-5.28-2.63-9.27-7.6-11.18-5.29-2-9.9-.61-13.64,4A11.26,11.26,0,0,1,72.44,6.9a6.48,6.48,0,0,0-.57-.4,11.76,11.76,0,0,0-15.4,3.86C55.89,11.27,55.47,12.26,55,13.22Z" fill="#f7d157"/><path d="M55,13.22c.5-1,.92-2,1.5-2.86A11.76,11.76,0,0,1,71.87,6.5a6.48,6.48,0,0,1,.57.4,11.26,11.26,0,0,0-6.23,8.82c3.74-4.57,8.35-6,13.64-4,5,1.91,7.34,5.9,7.6,11.18,1.39-1.47,2.16-5.33.94-9.38a8.85,8.85,0,0,1,7.06,2.16c3.73,3.32,4.42,7.39,2.54,12a9.58,9.58,0,0,0,1.52-1.46,2.72,2.72,0,0,1,2.87-1.08c4.37.52,7.19,3,8.87,7,.27.62.51,1.26.77,1.9a25.94,25.94,0,0,1,0,4,22.4,22.4,0,0,1-1.19,4c-.09.25-.46.46-.74.58-2.18.86-4.37,1.69-6.56,2.55-3.59,1.41-7.16,2.85-10.76,4.23-4.18,1.61-8.39,3.17-12.57,4.77-4.35,1.66-8.68,3.38-13,5a3.09,3.09,0,0,1-2,0C57.56,56.34,50,53.38,42.35,50.44L29.13,45.35c-1.66-.63-3.33-1.24-5-1.91a1.28,1.28,0,0,1-.71-.79,10.15,10.15,0,0,1,11.9-11.38,19.88,19.88,0,0,0,2.57.58,29.42,29.42,0,0,0-2.4-2.09,2.3,2.3,0,0,1-1.08-1.63A12.57,12.57,0,0,1,46.93,13.24a11.91,11.91,0,0,1,6.62,2.09,5.45,5.45,0,0,1,1,1.26C54.68,15.45,54.83,14.33,55,13.22Zm6,6a2,2,0,0,0-.63.22,10.58,10.58,0,0,0-3.71,5.84c-.2.88-.29,1.79-.44,2.7C50.54,26.28,46.35,27.5,44,31.4c-2.16,3.58-1.59,8.13.27,10.19-.12-4.29,1.48-7.69,5.44-9.56,4.27-2,8-.85,11.35,2.54a8.43,8.43,0,0,0-2.91-5.14A.92.92,0,0,1,57.93,28a11.3,11.3,0,0,1,5.86-5.1,3.71,3.71,0,0,0,.56-.35,3.42,3.42,0,0,0,.79-.06,11.17,11.17,0,0,1,6.72.24,11.49,11.49,0,0,1,6.69,5.7,15.29,15.29,0,0,0-1.23,1.09,7.18,7.18,0,0,0-2.24,3.76l-.71,2.36a50.94,50.94,0,0,0-5.24-.14,7.2,7.2,0,0,0-4.56,2.37,8.15,8.15,0,0,0-2.34,4.61c2.81-3.08,6.21-4.26,10.13-2.79S78,44.3,78,48.47a8.41,8.41,0,0,0,1.31-5A8.55,8.55,0,0,0,75,36.38l1.24-1.91.74-.65a9.19,9.19,0,0,1,8-2.39c4.2.77,6.62,3.44,7.7,7.47,1.12-2.18.44-6.22-1.56-8.56-3.23-3.75-7.19-4.32-11.63-2.46a31.92,31.92,0,0,0-.92-3.74,11.73,11.73,0,0,0-15.64-6.3A12.6,12.6,0,0,0,61,19.18Z" fill="none"/><path d="M78.24,119.12V68.75c0-1.55,0-3.11,0-4.66a1,1,0,0,1,.84-1.19q4.83-1.66,9.61-3.43,4.5-1.63,9-3.31c.27-.09.55-.15,1-.27-.2,1.58-.41,3-.57,4.49-.52,4.73-1,9.46-1.52,14.2-.58,5.25-1.18,10.5-1.75,15.76-.42,3.94-.81,7.89-1.22,11.84-.33,3.22-.65,6.44-1,9.66a1.6,1.6,0,0,1-.85,1c-3.22,1.54-6.46,3-9.7,4.51Z" fill="none"/><path d="M10.89,104.84,7.77,106a5.74,5.74,0,0,1,3.84-5c3.47-1.26,6.26-.11,8.5,2.71.15-1,0-1.44-1.39-3.89a8.42,8.42,0,0,1,8.45-.8,10.19,10.19,0,0,1,6.25,7.84A10.81,10.81,0,0,0,27,110.12a11.52,11.52,0,0,1,8.13.58,11.38,11.38,0,0,1,4.48,17.53c-2.15,2.78-7.36,3.63-10.23,1.67A6.71,6.71,0,0,0,32.21,126a6.61,6.61,0,0,1-8.37,1.08c-2.36-1.27-3.43-3.49-3.41-6.9-1.31,1.87-3.15,1.18-4.68.91-3.51-.64-6.36-2.44-7.82-5.86A8.31,8.31,0,0,1,9.87,106c.35-.34.73-.67,1.09-1Z" fill="#fff"/><path d="M75.08,33.3a7.18,7.18,0,0,1,2.24-3.76,15.29,15.29,0,0,1,1.23-1.09,11.49,11.49,0,0,0-6.69-5.7,11.17,11.17,0,0,0-6.72-.24,3.42,3.42,0,0,1-.79.06L61,19.18a12.6,12.6,0,0,1,2-1.34,11.73,11.73,0,0,1,15.64,6.3,31.92,31.92,0,0,1,.92,3.74c4.44-1.86,8.4-1.29,11.63,2.46,2,2.34,2.68,6.38,1.56,8.56-1.08-4-3.5-6.7-7.7-7.47a9.19,9.19,0,0,0-8,2.39l-.74.65Z" fill="#f7d157"/><path d="M61,19.18l3.39,3.39a3.71,3.71,0,0,1-.56.35A11.3,11.3,0,0,0,57.93,28a.92.92,0,0,0,.22,1.41,8.43,8.43,0,0,1,2.91,5.14C57.73,31.18,54,30,49.71,32c-4,1.87-5.56,5.27-5.44,9.56C42.41,39.53,41.84,35,44,31.4c2.35-3.9,6.54-5.12,12.18-3.46.15-.91.24-1.82.44-2.7a10.58,10.58,0,0,1,3.71-5.84A2,2,0,0,1,61,19.18Z" fill="#f7d157"/><path d="M75.08,33.3l1.18,1.17L75,36.38a8.55,8.55,0,0,1,4.29,7.06,8.41,8.41,0,0,1-1.31,5c0-4.17-1.75-7.29-5.64-8.76S65,39.42,62.23,42.5a8.15,8.15,0,0,1,2.34-4.61,7.2,7.2,0,0,1,4.56-2.37,50.94,50.94,0,0,1,5.24.14Z" fill="#f7d157"/><path d="M88.67,59.47q-4.78,1.76-9.61,3.43a1,1,0,0,0-.84,1.19c.06,1.55,0,3.11,0,4.66v50.37L82,117.38c3.24-1.49,6.48-3,9.7-4.51a1.6,1.6,0,0,0,.85-1c.4-3.22.72-6.44,1-9.66.41-4,.8-7.9,1.22-11.84.57-5.26,1.17-10.51,1.75-15.77.51-4.73,1-9.46,1.52-14.19.16-1.46.37-2.91.57-4.49-.43.12-.71.18-1,.27Q93.18,57.83,88.67,59.47Z" fill="none"/><path d="M23.45,42.65a10.15,10.15,0,0,1,11.9-11.38,19.88,19.88,0,0,0,2.57.58,29.42,29.42,0,0,0-2.4-2.09,2.3,2.3,0,0,1-1.08-1.63A12.57,12.57,0,0,1,46.93,13.24a11.91,11.91,0,0,1,6.62,2.09,5.45,5.45,0,0,1,1,1.26c.15-1.14.3-2.26.44-3.37l-1.72-1.77v2.38C48.85,8.3,42.34,7.42,37.42,9.92A12.07,12.07,0,0,0,31,18a12.83,12.83,0,0,0,1.76,10.24,1.39,1.39,0,0,1-.38,0A10,10,0,0,0,19.87,38.55a32.35,32.35,0,0,0,.76,3.67l.12.83,3.37.37A1.26,1.26,0,0,1,23.45,42.65Z" fill="#f7d157"/><path d="M88.67,59.47q-4.78,1.76-9.61,3.43a1,1,0,0,0-.84,1.19c.06,1.55,0,3.11,0,4.66v50.37L82,117.38c3.24-1.49,6.48-3,9.7-4.51a1.6,1.6,0,0,0,.85-1c.4-3.22.72-6.44,1-9.66.41-4,.8-7.9,1.22-11.84.57-5.26,1.17-10.51,1.75-15.77.51-4.73,1-9.46,1.52-14.19.16-1.46.37-2.91.57-4.49-.43.12-.71.18-1,.27Q93.18,57.83,88.67,59.47Z" fill="none"/><path d="M112.25,42.41a11.1,11.1,0,0,0,3.38-11.08c0-.17-.26-.3-.39-.45L112,34.1a25.94,25.94,0,0,1,0,4,22.4,22.4,0,0,1-1.19,4,.72.72,0,0,1-.17.23l1.58.12Z" fill="#f7d157"/><path d="M110.65,42.32a2.08,2.08,0,0,1-.57.35c-2.18.86-4.37,1.69-6.56,2.55-3.59,1.41-7.16,2.85-10.76,4.23-4.18,1.61-8.39,3.17-12.57,4.77-4.35,1.66-8.68,3.38-13,5a3.09,3.09,0,0,1-2,0C57.56,56.34,50,53.38,42.35,50.44L29.13,45.35c-1.66-.63-3.33-1.24-5-1.91l0,0-3.37-.37q.88,5.89,1.72,11.79c.48,3.44.89,6.88,1.37,10.31q1.28,9.33,2.59,18.65c.16,1.2.34,2.39.52,3.61,4.67-.7,7.51,2.38,10.69,4.94-1.3-12.17-2.59-24.21-3.88-36.3a3.74,3.74,0,0,1,.52.09q9.6,3.44,19.2,6.91a1.1,1.1,0,0,1,.56.84q0,14,0,27.9c0,11.56,0,23.12,0,34.67a1.27,1.27,0,0,0,.59.94c3.46,1.73,7,3.39,10.41,5.12a2.11,2.11,0,0,0,2.12,0Q80,126.25,92.85,120l8.09-4a1.46,1.46,0,0,0,1-1.24c.28-2.39.7-4.77,1-7.16q1.47-10.85,2.92-21.71c.89-6.75,1.75-13.5,2.65-20.25q1.44-10.92,2.94-21.81a2.52,2.52,0,0,1,.79-1.43ZM98.07,60.38c-.52,4.73-1,9.46-1.52,14.19C96,79.83,95.37,85.08,94.8,90.34c-.42,3.94-.81,7.89-1.22,11.84-.33,3.22-.65,6.44-1,9.66a1.6,1.6,0,0,1-.85,1c-3.22,1.54-6.46,3-9.7,4.51l-3.74,1.74V68.75c0-1.55,0-3.11,0-4.66a1,1,0,0,1,.84-1.19q4.83-1.66,9.61-3.43,4.5-1.63,9-3.31c.27-.09.55-.15,1-.27C98.44,57.47,98.23,58.92,98.07,60.38Z" fill="#f05357"/></svg>