<svg xmlns="http://www.w3.org/2000/svg" viewBox="0 0 49.47 68.55"><path d="M11.56,8.67A5,5,0,0,0,4.93,15C2.42,16,1.3,17.44,1.6,19.45H47.45c.59,0,.72-.18.63-.74a3.7,3.7,0,0,0-2.67-3.15c-.18-.07-.42-.29-.43-.46A3.83,3.83,0,0,0,43.16,12a.81.81,0,0,1-.3-.63,5.21,5.21,0,0,0-4.79-5.72.79.79,0,0,1-.86-.6,7.21,7.21,0,0,0-6.06-5A7.08,7.08,0,0,0,24,3.17a21.48,21.48,0,0,0-1.61,3.3L20,6.82C18.9,4.66,17.22,3.71,15.13,4.1S11.85,6,11.56,8.67ZM27,22.08V68.51H32.4q1.86-23.22,3.7-46.43ZM42.64,68.51q3.42-23.22,6.83-46.42H40.55q-1.84,23.22-3.71,46.42Zm-20.19,0V22.09H13.33Q15.19,45.34,17,68.51Zm-9.86,0c-1.24-15.55-2.48-31-3.71-46.47H0c0,.3.05.55.09.79.44,2.93.89,5.86,1.33,8.79Q2.28,37.35,3.12,43,4.05,49.18,5,55.33q1,6.41,1.93,12.81c0,.15.24.39.36.39C9,68.55,10.76,68.55,12.59,68.55Z" fill="#fee58b"/><path d="M11.56,8.67C11.85,6,13,4.49,15.13,4.1S18.9,4.66,20,6.82l2.34-.35A21.48,21.48,0,0,1,24,3.17,7.08,7.08,0,0,1,31.15.09a7.21,7.21,0,0,1,6.06,5,.79.79,0,0,0,.86.6,5.21,5.21,0,0,1,4.79,5.72.81.81,0,0,0,.3.63A3.83,3.83,0,0,1,45,15.12c0,.17.25.39.43.46a3.7,3.7,0,0,1,2.67,3.15c.09.56,0,.74-.63.74H1.6c-.3-2,.82-3.49,3.33-4.49A5,5,0,0,1,11.56,8.67Z" fill="#fee58b"/><path d="M27,22.08H36.1q-1.85,23.25-3.7,46.43H27Z" fill="#fee58b"/><path d="M42.64,68.51h-5.8q1.86-23.23,3.71-46.42h8.92Q46.05,45.33,42.64,68.51Z" fill="#fee58b"/><path d="M22.45,68.51H17Q15.18,45.3,13.33,22.09h9.12Z" fill="#fee58b"/><path d="M12.59,68.55c-1.83,0-3.57,0-5.31,0-.12,0-.33-.24-.36-.39Q5.94,61.74,5,55.33,4.06,49.18,3.12,43q-.86-5.69-1.7-11.37C1,28.73.53,25.8.09,22.87c0-.24-.06-.49-.09-.79H8.88C10.11,37.54,11.35,53,12.59,68.55Z" fill="#fee58b"/></svg>