<svg xmlns="http://www.w3.org/2000/svg" viewBox="0 0 48.69 44.55"><path d="M17.23,5.18C20.57.45,24.25-1,29,.65a10.71,10.71,0,0,1,6,5.11,10.49,10.49,0,0,1,.94,7.59c1.42.31,2.8.49,4.11.91A12.64,12.64,0,0,1,46.2,33.78a3.73,3.73,0,0,0-.81,2.13,9.15,9.15,0,0,1-6.57,8.22A9.26,9.26,0,0,1,28.68,41a1.09,1.09,0,0,0-1.3-.47,7.47,7.47,0,0,1-9.15-6.91,20,20,0,0,1,.32-2.94c-.89.35-1.83.81-2.81,1.09-4.58,1.32-8.87.79-12.52-2.45-4.47-4-4.15-10.24.12-14.28a18.37,18.37,0,0,0,1.48-1.28A1.42,1.42,0,0,0,5,12.62a7.36,7.36,0,0,1,5.24-9A7.4,7.4,0,0,1,17.23,5.18Zm-6.34,7.38.07.13c-.36.34-.74.66-1.09,1a8.3,8.3,0,0,0-1.94,9.22c1.46,3.42,4.31,5.22,7.82,5.86,1.53.28,3.37,1,4.68-.9,0,3.41,1.05,5.63,3.41,6.89a6.61,6.61,0,0,0,8.37-1.08,6.76,6.76,0,0,1-2.86,3.93c2.87,2,8.08,1.11,10.23-1.68A11.37,11.37,0,0,0,35.1,18.42,11.52,11.52,0,0,0,27,17.83a10.8,10.8,0,0,1,6.45-3.26,10.19,10.19,0,0,0-6.25-7.84,8.42,8.42,0,0,0-8.45.79c1.39,2.45,1.54,2.86,1.39,3.89-2.24-2.82-5-4-8.5-2.7a5.72,5.72,0,0,0-3.84,5Z" fill="#f7d157"/><path d="M10.89,12.52l.07.13c-.36.34-.74.66-1.09,1a8.3,8.3,0,0,0-1.94,9.22c1.46,3.42,4.31,5.22,7.82,5.86,1.53.28,3.37,1,4.68-.9,0,3.41,1.05,5.63,3.41,6.89a6.61,6.61,0,0,0,8.37-1.08,6.76,6.76,0,0,1-2.86,3.93c2.87,2,8.08,1.11,10.23-1.68A11.37,11.37,0,0,0,35.1,18.38,11.52,11.52,0,0,0,27,17.79a10.8,10.8,0,0,1,6.45-3.26,10.19,10.19,0,0,0-6.25-7.84,8.42,8.42,0,0,0-8.45.79c1.39,2.45,1.54,2.86,1.39,3.89-2.24-2.82-5-4-8.5-2.7a5.72,5.72,0,0,0-3.84,5Z" fill="#fff"/></svg>